<?xml version="1.0" encoding="UTF-8"?>
<svg fill="none" viewBox="0 0 384 229" xmlns="http://www.w3.org/2000/svg">
<g clip-path="url(#a)">
<path d="m294 226.41c-4.916-4.143-7.902-10.689-7.119-17.062 0.783-6.372 5.634-12.23 11.925-13.583 6.292-1.354 13.464 2.392 15.375 8.523 1.052-11.82 2.264-24.135 8.564-34.2 5.704-9.114 15.584-15.636 26.292-16.802 10.708-1.167 21.982 3.24 28.66 11.67s8.313 20.686 3.636 30.365c-3.445 7.13-9.793 12.436-16.444 16.753-21.492 13.831-47.268 19.456-72.587 15.839l1.698-1.503z" fill="#F2F2F2"/>
<path d="m367.11 156.77c-8.835 7.178-16.94 15.207-24.199 23.969-11.359 13.666-20.551 28.988-27.256 45.433-0.491 1.199 1.462 1.722 1.948 0.535 10.97-26.725 28.482-50.281 50.936-68.513 1.008-0.819-0.429-2.236-1.429-1.424z" fill="#F9FAFB"/>
<path d="m123.62 225.28c6.752-5.691 10.854-14.682 9.778-23.434-1.075-8.753-7.738-16.799-16.379-18.658-8.642-1.858-18.493 3.287-21.118 11.707-1.4445-16.234-3.1091-33.148-11.762-46.973-7.8351-12.519-21.406-21.476-36.113-23.078-14.707-1.603-30.192 4.45-39.364 16.029-9.1724 11.579-11.418 28.412-4.9941 41.706 4.7324 9.793 13.451 17.081 22.586 23.01 29.144 18.916 65.297 26.805 99.698 21.756" fill="#F2F2F2"/>
<path d="m23.202 129.63c12.135 9.86 23.268 20.887 33.238 32.922 9.971 12.023 18.749 24.982 26.212 38.695 4.1711 7.693 7.9182 15.607 11.224 23.707 0.6741 1.648-2.0083 2.365-2.6749 0.736-5.8561-14.281-13.101-27.954-21.632-40.825-8.4889-12.824-18.205-24.797-29.011-35.749-6.1123-6.192-12.561-12.044-19.318-17.529-1.3848-1.125 0.5881-3.072 1.9615-1.957z" fill="#F9FAFB"/>
<path d="m275.64 228.5h-161.1v-164.88c0-35.08 28.611-63.619 63.779-63.619h33.545c35.168 0 63.78 28.539 63.78 63.619v164.88z" fill="#F2F2F2"/>
<path d="m242.1 228.5h-127.56v-164.88c-0.035-13.442 4.232-26.544 12.18-37.398 0.293-0.3983 0.585-0.7915 0.887-1.1804 3.844-5.0296 8.419-9.4591 13.574-13.142 0.291-0.2113 0.583-0.4189 0.88-0.6266 4.313-2.9774 8.979-5.4113 13.891-7.2464 0.292-0.11028 0.589-0.22078 0.886-0.32677 4.442-1.5814 9.048-2.6647 13.73-3.2298 0.291-0.039558 0.589-0.070513 0.887-0.10147 4.563-0.4867 9.166-0.4867 13.729 0 0.297 0.030955 0.595 0.061906 0.889 0.10189 4.682 0.56514 9.286 1.6483 13.727 3.2294 0.297 0.10599 0.594 0.21648 0.887 0.32698 4.851 1.8119 9.462 4.2095 13.73 7.1393 0.296 0.2031 0.593 0.4108 0.885 0.6184 2.89 2.0573 5.603 4.3492 8.114 6.8524 2.014 2.0078 3.89 4.148 5.617 6.4062 0.3 0.3876 0.592 0.7808 0.885 1.1785 7.948 10.855 12.216 23.957 12.18 37.399v164.88z" fill="#ccc"/>
<path d="m231.72 154.75c3.9 0 7.062-3.154 7.062-7.044 0-3.891-3.162-7.044-7.062-7.044s-7.062 3.153-7.062 7.044c0 3.89 3.162 7.044 7.062 7.044z" fill="#EEF2FF"/>
<path d="m262.44 223.56h-5.411l-2.575-20.819h7.987l-1e-3 20.819z" fill="#FFB8B8"/>
<path d="m253.17 222.02h10.436v6.554h-17.007c0-0.861 0.17-1.713 0.5-2.508 0.331-0.795 0.815-1.518 1.425-2.126 0.61-0.609 1.334-1.092 2.131-1.421 0.798-0.33 1.652-0.499 2.515-0.499z" fill="#2F2E41"/>
<path d="m289.37 223.56h-5.412l-2.574-20.819h7.987l-1e-3 20.819z" fill="#FFB8B8"/>
<path d="m280.09 222.02h10.436v6.554h-17.006c0-0.861 0.169-1.713 0.5-2.508 0.33-0.795 0.814-1.518 1.424-2.126 0.61-0.609 1.335-1.092 2.132-1.421 0.797-0.33 1.651-0.499 2.514-0.499z" fill="#2F2E41"/>
<path d="m235.3 149.1c-0.389-0.572-0.648-1.222-0.758-1.905s-0.069-1.381 0.121-2.046 0.524-1.281 0.978-1.803c0.454-0.523 1.017-0.939 1.65-1.221l18.395-50.572 9.051 4.9272-21.003 48.329c0.405 1.092 0.393 2.294-0.032 3.378s-1.234 1.975-2.274 2.504c-1.039 0.529-2.237 0.659-3.367 0.366-1.129-0.293-2.112-0.989-2.761-1.957z" fill="#FFB8B8"/>
<path d="m286.6 158.61c-0.602-0.344-1.12-0.815-1.519-1.381-0.399-0.565-0.669-1.211-0.791-1.892-0.121-0.68-0.092-1.379 0.086-2.047 0.179-0.669 0.502-1.29 0.947-1.82l-5.699-53.496 10.301 0.4694 2.368 52.621c0.844 0.805 1.362 1.89 1.456 3.051 0.095 1.16-0.24 2.314-0.942 3.245-0.702 0.93-1.722 1.571-2.865 1.801-1.144 0.231-2.333 0.034-3.342-0.551z" fill="#FFB8B8"/>
<path d="m270.17 82.19c5.987 0 10.841-4.8413 10.841-10.813 0-5.972-4.854-10.813-10.841-10.813s-10.841 4.8414-10.841 10.813c0 5.9721 4.854 10.813 10.841 10.813z" fill="#FFB8B8"/>
<path d="m286.53 146.44h-32.682l0.039-0.253c0.059-0.38 5.825-38.057 1.572-50.383-0.427-1.2113-0.389-2.5372 0.105-3.7226 0.495-1.1854 1.412-2.1464 2.574-2.698 6.079-2.8553 17.747-6.3712 27.595 2.1613 1.449 1.2763 2.581 2.8713 3.306 4.6591 0.724 1.7877 1.022 3.7191 0.869 5.6411l-3.378 44.595z" fill="#EEF2FF"/>
<path d="m260.13 113.7-14.714-2.977 6.897-16.304c0.412-1.579 1.436-2.9303 2.846-3.7574 1.411-0.8271 3.092-1.0626 4.676-0.6547s2.941 1.4259 3.774 2.8305c0.833 1.4047 1.073 3.0814 0.668 4.6624l-4.147 16.2z" fill="#EEF2FF"/>
<path d="m278.97 119.23-0.885-20.226c-0.67-3.8022 1.512-7.3966 4.868-7.9841 3.357-0.5854 6.634 2.0517 7.308 5.8819l3.325 18.9-14.616 3.429z" fill="#EEF2FF"/>
<path d="m285.45 144.02c5.259 19.977 5.833 45.378 4.414 73.084l-7.062-0.881-12.8-52.832-7.062 53.713-7.945-0.44c-2.373-29.071-4.684-54.028-0.883-70.443l31.338-2.201z" fill="#2F2E41"/>
<path d="m277.31 79.734c-2.023 2.1488-5.779 0.9953-6.042-1.9404-0.021-0.2279-0.019-0.4573 4e-3 -0.6849 0.136-1.3003 0.89-2.4809 0.709-3.8539-0.041-0.3417-0.168-0.6674-0.371-0.9461-1.611-2.1526-5.394 0.9628-6.915-0.9859-0.933-1.1949 0.163-3.0762-0.552-4.4117-0.945-1.7626-3.743-0.8931-5.497-1.8584-1.952-1.0741-1.836-4.0616-0.55-5.8788 1.567-2.2161 4.314-3.3986 7.028-3.5691 2.713-0.1704 5.408 0.5613 7.941 1.546 2.878 1.1189 5.733 2.6652 7.504 5.1897 2.154 3.07 2.361 7.1974 1.284 10.787-0.655 2.1837-2.892 4.8514-4.543 6.6062z" fill="#2F2E41"/>
<path d="m370.75 228.78h-325.87c-0.1391-1e-3 -0.2724-0.056-0.3706-0.155-0.0982-0.098-0.1534-0.231-0.1534-0.37s0.0552-0.272 0.1534-0.37c0.0982-0.099 0.2315-0.154 0.3706-0.154h325.87c0.139 0 0.272 0.055 0.37 0.154 0.099 0.098 0.154 0.231 0.154 0.37s-0.055 0.272-0.154 0.37c-0.098 0.099-0.231 0.154-0.37 0.155z" fill="#3F3D56"/>
<path d="m207.01 180.73h-57.379c-0.756 4e-3 -1.482-0.291-2.02-0.821-0.538-0.529-0.843-1.25-0.849-2.004v-127.75c6e-3 -0.7538 0.311-1.4744 0.849-2.0039s1.264-0.8246 2.02-0.8205h57.379c0.756-0.0041 1.482 0.291 2.02 0.8205s0.843 1.2501 0.849 2.0039v127.75c-6e-3 0.754-0.311 1.475-0.849 2.004-0.538 0.53-1.264 0.825-2.02 0.821z" fill="#F9FAFB"/>
<path d="m209.88 88.665h-63.117v0.8809h63.117v-0.8809z" fill="#ccc"/>
<path d="m210.1 138.9h-63.118v0.881h63.118v-0.881z" fill="#ccc"/>
<path d="m167.5 47.329h-0.882v133.84h0.882v-133.84z" fill="#ccc"/>
<path d="m189.57 47.329h-0.883v133.84h0.883v-133.84z" fill="#ccc"/>
</g>
<defs>
<clipPath id="a">
<rect width="384" height="229" fill="#fff"/>
</clipPath>
</defs>
</svg>
